<?xml version="1.0" encoding="utf-8"?>
<!-- Generator: Adobe Illustrator 15.0.0, SVG Export Plug-In . SVG Version: 6.00 Build 0)  -->
<!DOCTYPE svg PUBLIC "-//W3C//DTD SVG 1.1//EN" "http://www.w3.org/Graphics/SVG/1.1/DTD/svg11.dtd">
<svg version="1.1" id="Layer_1" xmlns="http://www.w3.org/2000/svg" xmlns:xlink="http://www.w3.org/1999/xlink" x="0px" y="0px"
	 width="80px" height="25px" viewBox="0 0 80 25" enable-background="new 0 0 80 25" xml:space="preserve">
<g>
	<path fill="#444444" d="M12.062,20.844c0.504,0.867,0.756,1.699,0.756,2.5c0,0.182-0.015,0.348-0.045,0.496
		c-0.031,0.15-0.065,0.305-0.106,0.465c-0.343-0.05-0.701-0.074-1.074-0.074c-0.373,0-0.76,0-1.163,0c-0.484,0-0.973,0-1.466,0
		c-0.495,0-1.043,0.031-1.647,0.097c-0.604,0.063-1.28,0.149-2.025,0.257c-0.746,0.105-1.612,0.246-2.6,0.417
		c-0.464-0.161-0.928-0.479-1.391-0.952c-0.464-0.474-0.897-1.043-1.3-1.707c0.201-0.443,0.454-0.992,0.756-1.648
		c0.302-0.653,0.654-1.451,1.058-2.387c0.403-0.938,0.852-2.037,1.346-3.297c0.493-1.259,1.022-2.715,1.586-4.367
		C5.11,9.554,5.422,8.597,5.685,7.77c0.261-0.826,0.499-1.627,0.71-2.403c0.211-0.776,0.418-1.587,0.62-2.434
		C7.215,2.086,7.437,1.109,7.679,0C8.484,0.162,9.185,0.458,9.78,0.892c0.594,0.434,1.164,1.054,1.708,1.859
		c-0.161,0.261-0.373,0.685-0.634,1.269c-0.262,0.584-0.569,1.294-0.922,2.129C9.578,6.985,9.19,7.932,8.767,8.989
		c-0.423,1.057-0.867,2.191-1.33,3.398c-0.444,1.188-0.877,2.304-1.3,3.354c-0.423,1.048-0.801,1.993-1.133,2.839
		s-0.6,1.57-0.801,2.175C4,21.359,3.9,21.812,3.9,22.114c0.322,0,0.615-0.011,0.876-0.03c0.262-0.021,0.534-0.057,0.816-0.105
		c0.282-0.051,0.589-0.11,0.922-0.182c0.332-0.07,0.73-0.167,1.193-0.288c0.403-0.101,0.776-0.187,1.119-0.257
		c0.342-0.07,0.68-0.131,1.013-0.182s0.675-0.09,1.027-0.121C11.22,20.919,11.619,20.885,12.062,20.844z"/>
	<path fill="#444444" d="M14.602,20.542c0-0.183,0.016-0.408,0.045-0.681c0.031-0.271,0.086-0.635,0.166-1.088
		c0.082-0.455,0.187-1.002,0.319-1.648c0.13-0.645,0.296-1.421,0.498-2.327c0.041-0.202,0.13-0.524,0.272-0.967
		c0.141-0.442,0.327-0.912,0.56-1.406c0.231-0.493,0.514-0.972,0.846-1.437c0.333-0.463,0.731-0.805,1.194-1.027
		c0.342,0.081,0.796,0.288,1.36,0.619c0.563,0.333,1.047,0.792,1.45,1.376c-0.463,0.524-0.851,1.048-1.163,1.571
		s-0.594,1.068-0.847,1.633c-0.252,0.564-0.483,1.148-0.695,1.753c-0.211,0.604-0.449,1.239-0.711,1.903
		c-0.222,0.566-0.423,1.146-0.604,1.74c-0.182,0.594-0.283,1.112-0.303,1.558c0,0.36-0.005,0.618-0.015,0.771
		c-0.011,0.15-0.066,0.227-0.167,0.227c-0.08,0-0.241-0.049-0.484-0.149c-0.241-0.103-0.488-0.259-0.74-0.47
		c-0.252-0.213-0.479-0.479-0.68-0.801C14.702,21.37,14.602,20.984,14.602,20.542z"/>
	<path fill="#444444" d="M39.179,13.302c-0.322,0-0.715,0.196-1.179,0.591s-0.962,0.898-1.496,1.514
		c-0.534,0.615-1.089,1.296-1.663,2.045c-0.574,0.746-1.13,1.486-1.663,2.226c-0.534,0.736-1.032,1.427-1.496,2.071
		c-0.464,0.646-0.857,1.162-1.18,1.546c-0.442-0.183-0.826-0.448-1.147-0.802c-0.323-0.354-0.555-0.79-0.696-1.314
		c0.101-0.625,0.242-1.273,0.423-1.947c0.183-0.672,0.419-1.371,0.711-2.097c0.292-0.724,0.654-1.483,1.089-2.278
		c0.433-0.795,0.962-1.635,1.587-2.521c-0.303,0-0.716,0.207-1.24,0.621c-0.523,0.413-1.087,0.948-1.692,1.604
		c-0.604,0.654-1.229,1.392-1.874,2.209c-0.645,0.815-1.25,1.619-1.813,2.406c-0.747,1.049-1.365,1.967-1.86,2.754
		c-0.493,0.787-0.852,1.252-1.073,1.394c-0.524-0.384-0.887-0.796-1.088-1.238c-0.202-0.444-0.354-0.938-0.453-1.481
		c0.02-0.482,0.095-1.088,0.227-1.813c0.131-0.726,0.317-1.472,0.56-2.235c0.463-1.473,1.063-2.934,1.799-4.385
		c0.735-1.451,1.445-2.781,2.13-3.99c0.564,0.121,1.073,0.312,1.526,0.574c0.454,0.262,0.933,0.645,1.437,1.148
		c-0.201,0.625-0.514,1.285-0.938,1.98c-0.423,0.695-0.867,1.427-1.329,2.191c-0.464,0.766-0.888,1.552-1.271,2.356
		c-0.382,0.807-0.635,1.623-0.755,2.449c0.565-0.807,1.234-1.732,2.01-2.781c0.776-1.048,1.572-2.035,2.388-2.963
		c0.816-0.927,1.628-1.712,2.434-2.357c0.806-0.645,1.531-0.968,2.178-0.968c0.24,0,0.503,0.041,0.786,0.121
		c0.281,0.081,0.543,0.181,0.786,0.303c0.24,0.12,0.442,0.237,0.604,0.347c0.161,0.111,0.252,0.197,0.271,0.258
		c-0.101,0.403-0.337,0.951-0.709,1.647c-0.375,0.694-0.771,1.426-1.195,2.191c-0.423,0.767-0.815,1.507-1.178,2.222
		c-0.363,0.718-0.575,1.285-0.635,1.707c0.986-1.349,1.914-2.571,2.779-3.672c0.868-1.098,1.684-2.041,2.449-2.826
		c0.767-0.787,1.477-1.391,2.132-1.814c0.654-0.423,1.275-0.634,1.859-0.634c0.402,0,0.781,0.106,1.133,0.317
		c0.354,0.212,0.601,0.52,0.742,0.922c-0.184,0.605-0.479,1.331-0.893,2.177c-0.414,0.848-0.832,1.738-1.254,2.676
		c-0.424,0.938-0.801,1.859-1.134,2.768c-0.333,0.905-0.499,1.724-0.499,2.448c0,0.423,0.061,0.699,0.182,0.831
		c0.121,0.131,0.292,0.195,0.514,0.195c0.242,0,0.469-0.045,0.68-0.137c0.211-0.09,0.367-0.135,0.47-0.135
		c0.121,0.08,0.19,0.182,0.211,0.303c0.021,0.119,0.03,0.23,0.03,0.332c-0.403,0.322-0.815,0.588-1.239,0.801
		c-0.423,0.213-0.896,0.318-1.421,0.318c-0.483,0-0.882-0.082-1.194-0.242c-0.312-0.161-0.569-0.383-0.77-0.664
		c-0.202-0.282-0.344-0.604-0.425-0.967c-0.08-0.36-0.12-0.754-0.12-1.177c0-0.685,0.091-1.364,0.271-2.038
		c0.183-0.675,0.398-1.318,0.65-1.932c0.252-0.614,0.519-1.188,0.801-1.721C38.736,14.202,38.978,13.725,39.179,13.302z"/>
	<path fill="#444444" d="M62.305,13.302c-0.322,0-0.715,0.196-1.18,0.591c-0.463,0.395-0.961,0.898-1.496,1.514
		c-0.533,0.615-1.088,1.296-1.662,2.045c-0.574,0.746-1.129,1.486-1.664,2.226c-0.533,0.736-1.031,1.427-1.494,2.071
		c-0.465,0.646-0.856,1.162-1.18,1.546c-0.443-0.183-0.828-0.448-1.148-0.802c-0.323-0.354-0.555-0.79-0.694-1.314
		c0.1-0.625,0.241-1.273,0.422-1.947c0.183-0.672,0.418-1.371,0.711-2.097c0.293-0.724,0.654-1.483,1.09-2.278
		c0.433-0.795,0.962-1.635,1.587-2.521c-0.304,0-0.718,0.207-1.24,0.621c-0.523,0.413-1.088,0.948-1.691,1.604
		c-0.605,0.654-1.23,1.392-1.875,2.209c-0.645,0.815-1.25,1.619-1.812,2.406c-0.748,1.049-1.367,1.967-1.86,2.754
		c-0.492,0.787-0.853,1.252-1.072,1.394c-0.522-0.384-0.887-0.796-1.088-1.238c-0.206-0.444-0.356-0.938-0.456-1.483
		c0.02-0.481,0.094-1.088,0.227-1.812c0.129-0.727,0.316-1.473,0.56-2.236c0.463-1.472,1.062-2.933,1.799-4.384
		s1.444-2.781,2.131-3.99c0.563,0.121,1.074,0.312,1.527,0.574c0.452,0.262,0.932,0.645,1.437,1.148
		c-0.201,0.625-0.515,1.285-0.938,1.98c-0.423,0.695-0.867,1.426-1.33,2.191c-0.463,0.765-0.888,1.552-1.271,2.357
		c-0.383,0.805-0.635,1.622-0.756,2.448c0.564-0.808,1.234-1.731,2.01-2.782c0.777-1.047,1.572-2.035,2.39-2.962
		s1.627-1.712,2.434-2.357c0.806-0.646,1.531-0.968,2.179-0.968c0.24,0,0.502,0.041,0.785,0.121c0.28,0.081,0.543,0.181,0.786,0.303
		c0.24,0.12,0.441,0.237,0.604,0.347c0.16,0.111,0.252,0.197,0.271,0.258c-0.102,0.403-0.338,0.951-0.709,1.647
		c-0.375,0.695-0.771,1.426-1.194,2.191c-0.424,0.766-0.816,1.506-1.179,2.223s-0.575,1.283-0.635,1.707
		c0.985-1.35,1.914-2.572,2.778-3.674c0.867-1.097,1.685-2.04,2.449-2.825c0.769-0.787,1.478-1.391,2.133-1.814
		c0.654-0.423,1.273-0.634,1.857-0.634c0.404,0,0.781,0.106,1.135,0.317c0.353,0.212,0.599,0.52,0.74,0.922
		c-0.182,0.605-0.479,1.331-0.893,2.177c-0.412,0.848-0.83,1.737-1.254,2.676s-0.801,1.858-1.135,2.767
		c-0.332,0.906-0.498,1.725-0.498,2.449c0,0.424,0.061,0.699,0.182,0.831s0.293,0.195,0.514,0.195c0.242,0,0.469-0.045,0.68-0.136
		c0.213-0.092,0.369-0.137,0.47-0.137c0.12,0.081,0.19,0.182,0.213,0.303c0.021,0.121,0.028,0.231,0.028,0.332
		c-0.401,0.322-0.815,0.59-1.237,0.802c-0.424,0.213-0.897,0.317-1.422,0.317c-0.482,0-0.882-0.08-1.193-0.242
		c-0.312-0.16-0.569-0.383-0.771-0.664s-0.342-0.604-0.424-0.965c-0.08-0.361-0.121-0.756-0.121-1.178
		c0-0.685,0.092-1.363,0.271-2.039c0.185-0.674,0.399-1.316,0.651-1.931c0.25-0.614,0.519-1.187,0.802-1.72
		C61.861,14.202,62.104,13.725,62.305,13.302z"/>
	<path fill="#444444" d="M71.525,23.625c-1.148-0.121-2.066-0.625-2.752-1.511c-0.687-0.888-1.027-2.017-1.027-3.386
		c0-0.808,0.121-1.644,0.363-2.511c0.242-0.866,0.584-1.709,1.026-2.524c0.443-0.814,0.97-1.586,1.572-2.312
		c0.604-0.726,1.26-1.35,1.965-1.875c1.109-0.826,2.146-1.24,3.113-1.24c0.646,0.343,1.278,1.058,1.903,2.146
		c0.103,0,0.193-0.005,0.273-0.015c0.08-0.01,0.172-0.015,0.271-0.015c1.067,0,1.602,0.946,1.602,2.842
		c0,1.27-0.207,2.476-0.619,3.611c-0.414,1.139-0.988,2.172-1.723,3.1c-0.736,0.928-1.611,1.707-2.631,2.342
		C73.848,22.914,72.734,23.363,71.525,23.625z M73.066,14.102c-0.342,0.465-0.664,0.969-0.967,1.514
		c-0.304,0.544-0.564,1.093-0.785,1.646c-0.224,0.555-0.396,1.09-0.515,1.604c-0.12,0.513-0.182,0.972-0.182,1.376
		c0,0.483,0.08,0.946,0.239,1.39c0.162,0.442,0.345,0.696,0.547,0.755c0.906-0.2,1.736-0.577,2.492-1.133
		c0.756-0.555,1.41-1.243,1.965-2.069c0.556-0.826,0.988-1.765,1.3-2.812s0.469-2.166,0.469-3.355c0-0.522-0.028-0.937-0.09-1.238
		c-0.062-0.303-0.162-0.564-0.304-0.787c-0.887,0.263-1.678,0.686-2.373,1.27C74.17,12.843,73.572,13.457,73.066,14.102z"/>
</g>
<path fill="#F7274A" d="M20.375,7.422c0-0.122,0.031-0.303,0.091-0.544c-0.101-0.1-0.186-0.251-0.257-0.454
	c-0.07-0.201-0.106-0.382-0.106-0.544c0-0.182,0.026-0.428,0.076-0.741c0.049-0.312,0.116-0.65,0.196-1.013
	c0.082-0.363,0.182-0.741,0.303-1.134c0.122-0.393,0.243-0.75,0.363-1.073c0.242,0,0.539,0.066,0.892,0.197
	c0.354,0.131,0.711,0.302,1.074,0.514c0.361,0.211,0.695,0.443,0.998,0.696c0.301,0.252,0.534,0.489,0.695,0.71
	c-0.223,0.222-0.514,0.529-0.877,0.922c-0.363,0.393-0.716,0.806-1.058,1.239c-0.344,0.434-0.656,0.842-0.938,1.225
	c-0.283,0.383-0.464,0.655-0.544,0.816c-0.242-0.04-0.454-0.146-0.635-0.317S20.375,7.583,20.375,7.422z"/>
</svg>
